<svg width="60" height="60" viewBox="0 0 60 60" fill="none" xmlns="http://www.w3.org/2000/svg">
<rect x="1" y="59" width="58" height="58" rx="29" transform="rotate(-90 1 59)" stroke="#171717" stroke-opacity="0.8" stroke-width="2"/>
<path d="M19.5 30L18.7929 29.2929L18.0858 30L18.7929 30.7071L19.5 30ZM40.5 31C41.0523 31 41.5 30.5523 41.5 30C41.5 29.4477 41.0523 29 40.5 29L40.5 31ZM25.7929 22.2929L18.7929 29.2929L20.2071 30.7071L27.2071 23.7071L25.7929 22.2929ZM18.7929 30.7071L25.7929 37.7071L27.2071 36.2929L20.2071 29.2929L18.7929 30.7071ZM19.5 31L40.5 31L40.5 29L19.5 29L19.5 31Z" fill="#222222"/>
</svg>
