<svg width="28" height="28" viewBox="0 0 28 29" fill="none" xmlns="http://www.w3.org/2000/svg">
<path d="M12.8333 5.16699H4.66659C4.04775 5.16699 3.45425 5.41282 3.01667 5.85041C2.57908 6.28799 2.33325 6.88149 2.33325 7.50033V23.8337C2.33325 24.4525 2.57908 25.046 3.01667 25.4836C3.45425 25.9212 4.04775 26.167 4.66659 26.167H20.9999C21.6188 26.167 22.2122 25.9212 22.6498 25.4836C23.0874 25.046 23.3333 24.4525 23.3333 23.8337V15.667" stroke="#787878" stroke-width="2" stroke-linecap="round" stroke-linejoin="round"/>
<path d="M21.5833 3.41628C22.0474 2.95215 22.6769 2.69141 23.3333 2.69141C23.9896 2.69141 24.6191 2.95215 25.0833 3.41628C25.5474 3.88041 25.8081 4.5099 25.8081 5.16628C25.8081 5.82266 25.5474 6.45215 25.0833 6.91628L13.9999 17.9996L9.33325 19.1663L10.4999 14.4996L21.5833 3.41628Z" stroke="#787878" stroke-width="2" stroke-linecap="round" stroke-linejoin="round"/>
</svg>
