<svg width="109" height="109" viewBox="0 0 109 109" fill="none" xmlns="http://www.w3.org/2000/svg">
<path d="M96.6638 60.4455L105.456 62.7924L105.238 63.6088L99.4929 65.9772L103.293 70.8937L103.076 71.7101L94.2834 69.3633L94.5348 68.4213L101.694 70.3323L97.9856 65.5749L103.572 63.2985L96.4123 61.3875L96.6638 60.4455Z" fill="#B8AFAF"/>
<path d="M93.7348 70.574L101.86 74.6718L99.0501 80.2433L98.2375 79.8336L100.608 75.1326L97.9387 73.7862L96.0362 77.5586L95.2236 77.1488L97.1262 73.3764L94.1083 71.8544L91.6789 76.6714L90.8664 76.2616L93.7348 70.574Z" fill="#B8AFAF"/>
<path d="M90.3183 77.1836L97.5983 82.6435L95.5313 85.3995C95.0269 86.0721 94.3899 86.4664 93.6203 86.5825C92.8507 86.6987 92.1401 86.5124 91.4883 86.0236C90.8366 85.5348 90.4587 84.9047 90.3547 84.1334C90.2507 83.362 90.4509 82.6401 90.9553 81.9676L92.4373 79.9916L89.7333 77.9636L90.3183 77.1836ZM93.1653 80.5375L91.6833 82.5136C91.3297 82.985 91.1884 83.4695 91.2595 83.967C91.3306 84.4644 91.6018 84.89 92.0733 85.2436C92.5448 85.5972 93.0293 85.7384 93.5267 85.6673C94.0242 85.5963 94.4497 85.325 94.8033 84.8535L96.2853 82.8775L93.1653 80.5375Z" fill="#B8AFAF"/>
<path d="M86.3443 84.3776C87.6294 84.4477 88.7058 84.9668 89.5736 85.9347C90.4414 86.9027 90.8402 88.0292 90.7701 89.3142C90.7 90.5992 90.1809 91.6756 89.213 92.5434C88.245 93.4112 87.1185 93.81 85.8335 93.7399C84.5485 93.6698 83.4721 93.1508 82.6043 92.1828C81.7365 91.2149 81.3376 90.0884 81.4078 88.8033C81.4779 87.5183 81.9969 86.4419 82.9649 85.5741C83.9328 84.7063 85.0593 84.3075 86.3443 84.3776ZM86.2575 85.2935C85.2418 85.2381 84.3467 85.5575 83.5723 86.2517C82.798 86.9459 82.3863 87.798 82.3373 88.808C82.2877 89.8303 82.6187 90.7382 83.3302 91.532C84.0418 92.3257 84.9055 92.7503 85.9213 92.8057C86.9364 92.8734 87.8311 92.5601 88.6055 91.8658C89.3799 91.1716 89.7919 90.3134 89.8415 89.2911C89.8905 88.2811 89.5592 87.3793 88.8476 86.5856C88.136 85.7918 87.2727 85.3611 86.2575 85.2935Z" fill="#B8AFAF"/>
<path d="M78.8162 89.3103L83.3287 97.2127L77.2326 100.694L72.7201 92.7914L73.5668 92.3079L77.6281 99.4201L82.0308 96.9059L77.9695 89.7938L78.8162 89.3103Z" fill="#B8AFAF"/>
<path d="M71.2807 93.4587L74.2523 102.06L70.9962 103.185C70.2016 103.459 69.453 103.429 68.7505 103.094C68.0479 102.759 67.5636 102.207 67.2976 101.437C67.0316 100.667 67.0715 99.9331 67.4175 99.2359C67.7634 98.5387 68.3337 98.0529 69.1283 97.7783L71.4629 96.9718L70.3591 93.777L71.2807 93.4587ZM71.76 97.8319L69.4254 98.6385C68.8684 98.8309 68.48 99.1531 68.2602 99.605C68.0404 100.057 68.0267 100.561 68.2191 101.118C68.4116 101.675 68.7338 102.064 69.1856 102.284C69.6375 102.503 70.142 102.517 70.699 102.325L73.0336 101.518L71.76 97.8319Z" fill="#B8AFAF"/>
<path d="M64.503 95.8212L65.7609 104.834L64.7953 104.969L63.7799 97.6941L59.2589 105.741L58.422 105.858L57.1641 96.8455L58.1298 96.7107L59.1451 103.985L63.6661 95.938L64.503 95.8212Z" fill="#B8AFAF"/>
<path d="M56.1426 96.9825L53.7832 100.622C54.1227 100.755 54.4285 100.946 54.7005 101.196C55.2924 101.769 55.5637 102.479 55.5146 103.327C55.4695 104.105 55.168 104.739 54.6101 105.228C54.0523 105.716 53.371 105.937 52.5664 105.891L48.9325 105.68L49.4588 96.5952L50.4322 96.6516L50.2217 100.286L52.8173 100.436L55.0395 96.9186L56.1426 96.9825ZM52.8296 101.348L50.169 101.194L49.9585 104.828L52.619 104.982C53.1727 105.014 53.6235 104.875 53.9714 104.566C54.3192 104.256 54.5091 103.824 54.5412 103.27C54.5733 102.717 54.4345 102.266 54.1248 101.918C53.815 101.57 53.3833 101.38 52.8296 101.348Z" fill="#B8AFAF"/>
<path d="M45.7993 95.9406L43.9895 103.928L46.7788 104.56L46.5777 105.448L40.0482 103.968L40.2493 103.081L43.0386 103.713L44.8484 95.7251L45.7993 95.9406Z" fill="#B8AFAF"/>
<path d="M41.6743 95.0793L38.0981 103.447L37.2016 103.064L40.0881 96.3099L32.0613 100.867L31.2843 100.535L34.8605 92.1672L35.757 92.5504L32.8705 99.3044L40.8973 94.7472L41.6743 95.0793Z" fill="#B8AFAF"/>
<path d="M34.0952 91.8635L30.1968 93.7653C30.4194 94.0539 30.5828 94.3755 30.6868 94.7301C30.8987 95.5258 30.765 96.2743 30.2857 96.9755C29.8455 97.6194 29.2604 98.0068 28.5305 98.1377C27.8006 98.2686 27.103 98.1067 26.4376 97.6518L23.4327 95.5976L28.5682 88.0852L29.3731 88.6354L27.3189 91.6404L29.4653 93.1077L33.183 91.2399L34.0952 91.8635ZM29.0054 93.8956L26.8053 92.3916L24.7511 95.3966L26.9512 96.9006C27.4091 97.2136 27.8669 97.3271 28.3246 97.2411C28.7824 97.1551 29.1677 96.8831 29.4808 96.4252C29.7938 95.9673 29.9073 95.5095 29.8213 95.0518C29.7353 94.594 29.4633 94.2086 29.0054 93.8956Z" fill="#B8AFAF"/>
<path d="M21.8835 81.5754L14.7451 87.2194L14.1404 86.4545L21.2787 80.8106L21.8835 81.5754Z" fill="#B8AFAF"/>
<path d="M18.7923 77.357L11.8186 81.6515L13.3183 84.0868L12.5434 84.564L9.0328 78.8632L9.80765 78.3861L11.3073 80.8213L18.2811 76.5268L18.7923 77.357Z" fill="#B8AFAF"/>
<path d="M16.9197 74.6712L7.07 74.5967L6.72808 73.7534L13.7447 66.8404L14.1355 67.8042L12.177 69.7205L13.789 73.6961L16.529 73.7074L16.9197 74.6712ZM12.7991 73.6766L11.4803 70.4238L8.16402 73.6621L12.7991 73.6766Z" fill="#B8AFAF"/>
<path d="M13.5741 66.7748L4.60429 68.3085L4.46188 67.4756L8.69583 62.9269L3.19111 60.0434L3.0487 59.2105L12.0185 57.6768L12.1829 58.6379L4.87885 59.8867L10.2335 62.664L6.1058 67.0626L13.4098 65.8137L13.5741 66.7748Z" fill="#B8AFAF"/>
<path d="M12.0628 49.4942L3.21944 47.3484L3.4187 46.5272L9.10838 44.0284L5.19667 39.1998L5.39592 38.3786L14.2393 40.5245L14.0094 41.472L6.80835 39.7247L10.6244 44.3962L5.09169 46.7994L12.2927 48.5467L12.0628 49.4942Z" fill="#B8AFAF"/>
<path d="M14.7017 39.405L6.48737 35.4891L9.17255 29.8564L9.99399 30.248L7.72837 35.0006L10.4274 36.2873L12.2455 32.4735L13.0669 32.865L11.2488 36.6789L14.2999 38.1333L16.6214 33.2634L17.4429 33.655L14.7017 39.405Z" fill="#B8AFAF"/>
<path d="M17.9996 32.6296L10.6017 27.3305L12.6078 24.5298C13.0973 23.8464 13.7255 23.4382 14.4924 23.3052C15.2593 23.1723 15.9738 23.343 16.6361 23.8174C17.2984 24.2918 17.69 24.9134 17.8109 25.6823C17.9318 26.4512 17.7474 27.1773 17.2579 27.8607L15.8195 29.8687L18.5673 31.837L17.9996 32.6296ZM15.0798 29.3388L16.5181 27.3308C16.8613 26.8517 16.9919 26.3643 16.9099 25.8685C16.828 25.3727 16.5475 24.9532 16.0684 24.61C15.5893 24.2668 15.1018 24.1362 14.606 24.2182C14.1102 24.3001 13.6907 24.5806 13.3476 25.0597L11.9092 27.0677L15.0798 29.3388Z" fill="#B8AFAF"/>
<path d="M21.6953 25.4414C20.4091 25.3993 19.3216 24.9039 18.4329 23.9551C17.5442 23.0063 17.1209 21.8887 17.163 20.6025C17.2051 19.3162 17.7005 18.2288 18.6493 17.3401C19.5981 16.4514 20.7156 16.0281 22.0019 16.0702C23.2881 16.1122 24.3756 16.6077 25.2643 17.5565C26.153 18.5053 26.5763 19.6228 26.5342 20.909C26.4921 22.1953 25.9967 23.2828 25.0479 24.1715C24.0991 25.0601 22.9816 25.4835 21.6953 25.4414ZM21.7621 24.5238C22.7789 24.5571 23.6668 24.2182 24.4258 23.5073C25.1849 22.7963 25.5779 21.9354 25.6048 20.9246C25.6321 19.9016 25.2814 19.001 24.5527 18.223C23.824 17.445 22.9512 17.0393 21.9345 17.0061C20.9181 16.9606 20.0304 17.2933 19.2714 18.0042C18.5124 18.7152 18.1192 19.5822 18.0918 20.6053C18.0649 21.6161 18.4158 22.5105 19.1445 23.2885C19.8733 24.0666 20.7458 24.4783 21.7621 24.5238Z" fill="#B8AFAF"/>
<path d="M29.1261 20.2834L24.4401 12.4826L30.4578 8.86772L35.1438 16.6685L34.308 17.1705L30.0906 10.1499L25.7445 12.7606L29.9619 19.7813L29.1261 20.2834Z" fill="#B8AFAF"/>
<path d="M36.3729 16.0076L33.2081 7.47567L36.438 6.27753C37.2262 5.98516 37.9752 5.99847 38.6852 6.31748C39.3951 6.63649 39.8917 7.1779 40.1751 7.94171C40.4584 8.70551 40.435 9.43983 40.1049 10.1447C39.7747 10.8495 39.2155 11.3481 38.4274 11.6404L36.1115 12.4995L37.2871 15.6685L36.3729 16.0076ZM35.7951 11.6463L38.1109 10.7873C38.6634 10.5823 39.0445 10.2514 39.254 9.79471C39.4636 9.33798 39.4659 8.83334 39.2609 8.2808C39.056 7.72826 38.7251 7.3472 38.2684 7.13763C37.8117 6.92806 37.307 6.92576 36.7545 7.13073L34.4387 7.98977L35.7951 11.6463Z" fill="#B8AFAF"/>
<path d="M43.2106 13.4065L41.7457 4.42515L42.708 4.26819L43.8904 11.5174L48.2251 3.36831L49.059 3.23228L50.524 12.2136L49.5617 12.3705L48.3793 5.12135L44.0446 13.2704L43.2106 13.4065Z" fill="#B8AFAF"/>
<path d="M51.4638 12.0153L53.7385 8.3221C53.3959 8.19746 53.0858 8.01325 52.8081 7.76946C52.2031 7.21078 51.9154 6.50703 51.9449 5.65821C51.972 4.87868 52.2587 4.23825 52.8051 3.73692C53.3515 3.2356 54.0275 2.99893 54.833 3.02692L58.4708 3.15333L58.1548 12.2478L57.1804 12.214L57.3068 8.57618L54.7084 8.48588L52.5682 12.0537L51.4638 12.0153ZM54.675 7.57417L57.3384 7.66672L57.4648 4.02892L54.8014 3.93637C54.2471 3.91711 53.7996 4.06632 53.4591 4.38402C53.1185 4.70172 52.9386 5.13773 52.9193 5.69207C52.9 6.2464 53.0493 6.69385 53.367 7.03442C53.6847 7.37499 54.1207 7.55491 54.675 7.57417Z" fill="#B8AFAF"/>
<path d="M61.8018 12.7677L63.4284 4.7409L60.6253 4.17289L60.8061 3.28101L67.3677 4.61067L67.187 5.50254L64.3839 4.93454L62.7574 12.9614L61.8018 12.7677Z" fill="#B8AFAF"/>
<path d="M66.1407 13.5488L69.5284 5.10291L70.4333 5.46587L67.699 12.2829L75.6215 7.54685L76.4058 7.86142L73.0181 16.3074L72.1132 15.9444L74.8475 9.12732L66.925 13.8634L66.1407 13.5488Z" fill="#B8AFAF"/>
<path d="M73.8599 16.6045L77.7155 14.6175C77.4866 14.3338 77.3163 14.0159 77.2044 13.6637C76.9751 12.8728 77.0923 12.1216 77.5561 11.4101C77.9821 10.7566 78.5585 10.3564 79.2853 10.2095C80.0121 10.0626 80.7132 10.2092 81.3884 10.6493L84.4378 12.637L79.4685 20.2604L78.6517 19.728L80.6394 16.6786L78.4613 15.2588L74.7856 17.2079L73.8599 16.6045ZM78.9038 14.461L81.1364 15.9163L83.124 12.8669L80.8915 11.4116C80.4268 11.1087 79.9666 11.0053 79.5109 11.1014C79.0551 11.1974 78.6758 11.4778 78.3729 11.9425C78.07 12.4071 77.9666 12.8673 78.0627 13.3231C78.1587 13.7788 78.4391 14.1581 78.9038 14.461Z" fill="#B8AFAF"/>
<path d="M86.3617 26.6644L93.375 20.8658L93.9963 21.6172L86.983 27.4158L86.3617 26.6644Z" fill="#B8AFAF"/>
<path d="M89.4501 30.6653L96.3275 26.2181L94.7745 23.8165L95.5387 23.3224L99.174 28.9444L98.4099 29.4385L96.8569 27.0369L89.9795 31.484L89.4501 30.6653Z" fill="#B8AFAF"/>
<path d="M91.4258 33.3385L101.275 33.1923L101.635 34.0277L94.7755 41.0962L94.3633 40.1414L96.2783 38.1817L94.5777 34.2432L91.8381 34.2933L91.4258 33.3385ZM95.5677 34.2405L96.9591 37.4629L100.202 34.1511L95.5677 34.2405Z" fill="#B8AFAF"/>
<path d="M94.9884 41.2397L103.921 39.5006L104.082 40.33L99.9537 44.9746L105.523 47.731L105.685 48.5604L96.7524 50.2996L96.566 49.3425L103.839 47.9264L98.4225 45.2727L102.448 40.7806L95.1747 42.1967L94.9884 41.2397Z" fill="#B8AFAF"/>
<path d="M67.495 52.9125L59.2051 50.0801L56.19 42.2925C56.0638 41.9667 55.834 41.6852 55.5316 41.4862C55.2293 41.2873 54.8691 41.1806 54.5 41.1806C54.1309 41.1806 53.7707 41.2873 53.4684 41.4862C53.166 41.6852 52.9362 41.9667 52.81 42.2925L49.7949 50.0801L41.505 52.9125C41.1581 53.031 40.8584 53.2469 40.6466 53.5309C40.4349 53.8149 40.3213 54.1532 40.3213 54.5C40.3213 54.8467 40.4349 55.1851 40.6466 55.4691C40.8584 55.7531 41.1581 55.969 41.505 56.0875L49.7949 58.9199L52.81 66.7075C52.9362 67.0333 53.166 67.3148 53.4684 67.5137C53.7707 67.7127 54.1309 67.8194 54.5 67.8194C54.8691 67.8194 55.2293 67.7127 55.5316 67.5137C55.834 67.3148 56.0638 67.0333 56.19 66.7075L59.2051 58.9199L67.495 56.0875C67.8419 55.969 68.1416 55.7531 68.3533 55.4691C68.5651 55.1851 68.6787 54.8467 68.6787 54.5C68.6787 54.1532 68.5651 53.8149 68.3533 53.5309C68.1416 53.2469 67.8419 53.031 67.495 52.9125ZM66.9665 54.7289L58.3375 57.6763C58.2313 57.7126 58.1347 57.7703 58.0548 57.8454C57.9748 57.9205 57.9134 58.0112 57.8748 58.111L54.7372 66.217C54.7174 66.2607 54.6843 66.298 54.6421 66.3241C54.6 66.3503 54.5505 66.3643 54.5 66.3643C54.4494 66.3643 54.4 66.3503 54.3578 66.3241C54.3157 66.298 54.2826 66.2607 54.2628 66.217L51.1252 58.111C51.0866 58.0112 51.0252 57.9205 50.9452 57.8454C50.8652 57.7703 50.7687 57.7126 50.6625 57.6763L42.0335 54.7228C41.987 54.7042 41.9473 54.6731 41.9194 54.6335C41.8916 54.5939 41.8767 54.5475 41.8767 54.5C41.8767 54.4525 41.8916 54.4061 41.9194 54.3664C41.9473 54.3268 41.987 54.2958 42.0335 54.2772L50.6625 51.3298C50.7687 51.2935 50.8652 51.2358 50.9452 51.1606C51.0252 51.0855 51.0866 50.9949 51.1252 50.895L54.2628 42.789C54.2826 42.7453 54.3157 42.7081 54.3578 42.6819C54.4 42.6557 54.4494 42.6417 54.5 42.6417C54.5505 42.6417 54.6 42.6557 54.6421 42.6819C54.6843 42.7081 54.7174 42.7453 54.7372 42.789L57.8748 50.895C57.9134 50.9949 57.9748 51.0855 58.0548 51.1606C58.1347 51.2358 58.2313 51.2935 58.3375 51.3298L66.9665 54.2772C67.013 54.2958 67.0527 54.3268 67.0806 54.3664C67.1084 54.4061 67.1233 54.4525 67.1233 54.5C67.1233 54.5475 67.1084 54.5939 67.0806 54.6335C67.0527 54.6731 67.013 54.7042 66.9665 54.7228V54.7289Z" fill="#B8AFAF"/>
</svg>
