<svg width="26" height="26" viewBox="0 0 26 26" fill="none" xmlns="http://www.w3.org/2000/svg">
<path d="M3.25 6.5H5.41667H22.75" stroke="#787878" stroke-width="2" stroke-linecap="round" stroke-linejoin="round"/>
<path d="M20.5832 6.50002V21.6667C20.5832 22.2413 20.3549 22.7924 19.9486 23.1988C19.5422 23.6051 18.9911 23.8334 18.4165 23.8334H7.58317C7.00853 23.8334 6.45743 23.6051 6.05111 23.1988C5.64478 22.7924 5.4165 22.2413 5.4165 21.6667V6.50002M8.6665 6.50002V4.33335C8.6665 3.75872 8.89478 3.20762 9.30111 2.80129C9.70744 2.39496 10.2585 2.16669 10.8332 2.16669H15.1665C15.7411 2.16669 16.2922 2.39496 16.6986 2.80129C17.1049 3.20762 17.3332 3.75872 17.3332 4.33335V6.50002" stroke="#787878" stroke-width="2" stroke-linecap="round" stroke-linejoin="round"/>
</svg>
