<svg width="40" height="40" viewBox="0 0 40 40" fill="none" xmlns="http://www.w3.org/2000/svg">
<path d="M5 10H8.33333H35" stroke="#787878" stroke-width="2" stroke-linecap="round" stroke-linejoin="round"/>
<path d="M31.6667 10V33.3333C31.6667 34.2174 31.3155 35.0652 30.6904 35.6904C30.0653 36.3155 29.2174 36.6667 28.3334 36.6667H11.6667C10.7827 36.6667 9.93481 36.3155 9.30968 35.6904C8.68456 35.0652 8.33337 34.2174 8.33337 33.3333V10M13.3334 10V6.66668C13.3334 5.78262 13.6846 4.93478 14.3097 4.30965C14.9348 3.68453 15.7827 3.33334 16.6667 3.33334H23.3334C24.2174 3.33334 25.0653 3.68453 25.6904 4.30965C26.3155 4.93478 26.6667 5.78262 26.6667 6.66668V10" stroke="#787878" stroke-width="2" stroke-linecap="round" stroke-linejoin="round"/>
</svg>
