<svg width="60" height="60" viewBox="0 0 60 60" fill="none" xmlns="http://www.w3.org/2000/svg">
<rect x="59" y="1" width="58" height="58" rx="29" transform="rotate(90 59 1)" stroke="black" stroke-width="2"/>
<path d="M40.5 30L41.2071 30.7071L41.9142 30L41.2071 29.2929L40.5 30ZM19.5 29C18.9477 29 18.5 29.4477 18.5 30C18.5 30.5523 18.9477 31 19.5 31L19.5 29ZM34.2071 37.7071L41.2071 30.7071L39.7929 29.2929L32.7929 36.2929L34.2071 37.7071ZM41.2071 29.2929L34.2071 22.2929L32.7929 23.7071L39.7929 30.7071L41.2071 29.2929ZM40.5 29L19.5 29L19.5 31L40.5 31L40.5 29Z" fill="#222222"/>
</svg>
