<svg width="181" height="181" viewBox="0 0 181 181" fill="none" xmlns="http://www.w3.org/2000/svg">
<path d="M161.507 100.248L173.681 103.497L173.379 104.628L165.425 107.907L170.687 114.715L170.385 115.845L158.211 112.596L158.56 111.291L168.473 113.937L163.338 107.35L171.072 104.198L161.159 101.552L161.507 100.248Z" fill="#3C3340"/>
<path d="M156.648 117.273L167.898 122.947L164.008 130.661L162.883 130.094L166.165 123.585L162.469 121.72L159.835 126.944L158.71 126.376L161.344 121.153L157.165 119.046L153.802 125.715L152.676 125.148L156.648 117.273Z" fill="#3C3340"/>
<path d="M150.945 128.422L161.026 135.982L158.164 139.798C157.465 140.729 156.583 141.275 155.518 141.436C154.452 141.596 153.468 141.338 152.566 140.662C151.663 139.985 151.14 139.112 150.996 138.044C150.852 136.976 151.129 135.977 151.828 135.046L153.88 132.31L150.135 129.502L150.945 128.422ZM154.888 133.066L152.836 135.802C152.346 136.454 152.15 137.125 152.249 137.814C152.347 138.503 152.723 139.092 153.376 139.582C154.028 140.071 154.699 140.267 155.388 140.168C156.077 140.07 156.666 139.694 157.156 139.042L159.208 136.306L154.888 133.066Z" fill="#3C3340"/>
<path d="M144.211 140.155C145.99 140.252 147.481 140.97 148.682 142.311C149.884 143.651 150.436 145.211 150.339 146.99C150.242 148.769 149.523 150.26 148.183 151.461C146.843 152.663 145.283 153.215 143.504 153.118C141.724 153.021 140.234 152.302 139.032 150.962C137.831 149.622 137.278 148.062 137.376 146.283C137.473 144.503 138.191 143.013 139.532 141.811C140.872 140.61 142.432 140.058 144.211 140.155ZM144.091 141.423C142.684 141.346 141.445 141.788 140.373 142.75C139.3 143.711 138.73 144.891 138.663 146.289C138.594 147.704 139.052 148.962 140.037 150.061C141.023 151.16 142.219 151.748 143.625 151.824C145.031 151.918 146.269 151.484 147.342 150.523C148.414 149.562 148.984 148.373 149.053 146.958C149.121 145.56 148.662 144.311 147.677 143.212C146.692 142.113 145.496 141.516 144.091 141.423Z" fill="#3C3340"/>
<path d="M131.665 148.922L137.913 159.864L129.472 164.684L123.224 153.742L124.396 153.073L130.02 162.92L136.116 159.439L130.492 149.592L131.665 148.922Z" fill="#3C3340"/>
<path d="M119.024 155.946L123.138 167.855L118.63 169.413C117.529 169.793 116.493 169.751 115.52 169.287C114.547 168.824 113.877 168.059 113.509 166.992C113.14 165.926 113.196 164.911 113.675 163.945C114.154 162.98 114.943 162.307 116.043 161.927L119.276 160.81L117.748 156.387L119.024 155.946ZM119.687 162.001L116.455 163.118C115.684 163.384 115.146 163.831 114.841 164.456C114.537 165.082 114.518 165.78 114.785 166.552C115.051 167.323 115.497 167.861 116.123 168.165C116.748 168.469 117.447 168.488 118.218 168.222L121.451 167.105L119.687 162.001Z" fill="#3C3340"/>
<path d="M107.611 159.982L109.353 172.461L108.016 172.647L106.61 162.575L100.35 173.717L99.1914 173.879L97.4497 161.4L98.7868 161.213L100.193 171.286L106.452 160.143L107.611 159.982Z" fill="#3C3340"/>
<path d="M93.3533 161.98L90.0863 167.019C90.5565 167.203 90.9798 167.468 91.3564 167.814C92.176 168.607 92.5517 169.59 92.4837 170.764C92.4212 171.842 92.0038 172.72 91.2313 173.396C90.4589 174.073 89.5156 174.379 88.4015 174.314L83.3699 174.022L84.0988 161.444L85.4465 161.522L85.155 166.553L88.749 166.761L91.8258 161.891L93.3533 161.98ZM88.7659 168.025L85.0821 167.811L84.7906 172.843L88.4744 173.056C89.2411 173.101 89.8653 172.908 90.3469 172.479C90.8285 172.051 91.0915 171.453 91.1359 170.686C91.1804 169.919 90.9881 169.295 90.5593 168.814C90.1304 168.332 89.5326 168.069 88.7659 168.025Z" fill="#3C3340"/>
<path d="M76.6871 160.408L74.1812 171.468L78.0433 172.343L77.7648 173.572L68.724 171.523L69.0024 170.294L72.8645 171.169L75.3704 160.11L76.6871 160.408Z" fill="#3C3340"/>
<path d="M69.1846 158.884L64.233 170.47L62.9916 169.94L66.9883 160.588L55.8743 166.898L54.7985 166.438L59.7501 154.852L60.9915 155.383L56.9948 164.734L68.1088 158.424L69.1846 158.884Z" fill="#3C3340"/>
<path d="M56.2418 153.41L50.8441 156.043C51.1523 156.443 51.3785 156.888 51.5225 157.379C51.8159 158.481 51.6308 159.517 50.9671 160.488C50.3576 161.38 49.5475 161.916 48.5369 162.097C47.5263 162.279 46.5603 162.054 45.639 161.424L41.4783 158.58L48.5891 148.178L49.7036 148.94L46.8593 153.101L49.8312 155.133L54.9788 152.546L56.2418 153.41ZM49.1944 156.224L46.1482 154.141L43.3039 158.302L46.3501 160.384C46.9841 160.818 47.618 160.975 48.2518 160.856C48.8856 160.737 49.4192 160.36 49.8526 159.726C50.286 159.092 50.4432 158.458 50.3241 157.824C50.205 157.191 49.8284 156.657 49.1944 156.224Z" fill="#3C3340"/>
<path d="M35.8454 136.33L25.9615 144.145L25.1242 143.086L35.0081 135.271L35.8454 136.33Z" fill="#3C3340"/>
<path d="M30.8679 129.674L21.212 135.62L23.2885 138.992L22.2156 139.653L17.3547 131.76L18.4276 131.099L20.5041 134.471L30.16 128.524L30.8679 129.674Z" fill="#3C3340"/>
<path d="M27.2642 124.41L13.6261 124.307L13.1527 123.139L22.8681 113.567L23.4091 114.902L20.6974 117.555L22.9293 123.06L26.7231 123.076L27.2642 124.41ZM21.5587 123.033L19.7326 118.529L15.1409 123.013L21.5587 123.033Z" fill="#3C3340"/>
<path d="M21.6906 111.41L9.27086 113.534L9.07367 112.381L14.9361 106.083L7.31415 102.09L7.11696 100.937L19.5367 98.8132L19.7642 100.144L9.65101 101.873L17.0652 105.719L11.3499 111.809L21.4631 110.08L21.6906 111.41Z" fill="#3C3340"/>
<path d="M19.0414 82.335L6.79672 79.3639L7.07262 78.2268L14.9506 74.767L9.53442 68.0813L9.81031 66.9442L22.055 69.9154L21.7367 71.2273L11.766 68.808L17.0497 75.2763L9.38907 78.6037L19.3597 81.0231L19.0414 82.335Z" fill="#3C3340"/>
<path d="M23.4146 65.3752L12.0409 59.9532L15.7588 52.1541L16.8962 52.6963L13.7592 59.2768L17.4963 61.0583L20.0136 55.7777L21.151 56.3199L18.6336 61.6005L22.8582 63.6144L26.0726 56.8714L27.21 57.4136L23.4146 65.3752Z" fill="#3C3340"/>
<path d="M28.9165 53.9496L18.6733 46.6123L21.451 42.7345C22.1288 41.7882 22.9986 41.223 24.0604 41.0389C25.1222 40.8548 26.1117 41.0911 27.0287 41.748C27.9457 42.4049 28.4879 43.2656 28.6553 44.3302C28.8226 45.3948 28.5674 46.4002 27.8896 47.3465L25.898 50.1268L29.7026 52.8521L28.9165 53.9496ZM24.8737 49.3931L26.8652 46.6128C27.3404 45.9494 27.5213 45.2745 27.4078 44.588C27.2943 43.9015 26.9059 43.3207 26.2425 42.8455C25.5792 42.3703 24.9042 42.1895 24.2178 42.3029C23.5313 42.4164 22.9505 42.8048 22.4753 43.4682L20.4837 46.2485L24.8737 49.3931Z" fill="#3C3340"/>
<path d="M35.1936 42.2235C33.4126 42.1653 31.9069 41.4793 30.6764 40.1655C29.4459 38.8518 28.8598 37.3045 28.918 35.5235C28.9763 33.7426 29.6623 32.2368 30.976 31.0063C32.2897 29.7758 33.8371 29.1897 35.618 29.248C37.399 29.3062 38.9047 29.9922 40.1352 31.306C41.3657 32.6197 41.9518 34.167 41.8936 35.948C41.8353 37.7289 41.1493 39.2347 39.8356 40.4652C38.5219 41.6957 36.9745 42.2818 35.1936 42.2235ZM35.2861 40.9531C36.6939 40.9991 37.9232 40.53 38.9742 39.5456C40.0252 38.5612 40.5694 37.3692 40.6066 35.9696C40.6445 34.553 40.1589 33.3061 39.1499 32.2288C38.1409 31.1516 36.9325 30.5899 35.5247 30.5439C34.1174 30.4809 32.8883 30.9415 31.8373 31.9259C30.7864 32.9103 30.242 34.1108 30.2041 35.5274C30.1668 36.927 30.6527 38.1654 31.6617 39.2427C32.6707 40.3199 33.8788 40.8901 35.2861 40.9531Z" fill="#3C3340"/>
<path d="M47.5652 33.0811L41.0769 22.2801L49.4091 17.2748L55.8974 28.0758L54.7402 28.771L48.9007 19.0501L42.883 22.665L48.7225 32.3859L47.5652 33.0811Z" fill="#3C3340"/>
<path d="M59.7239 25.8436L55.3417 14.0302L59.814 12.3712C60.9053 11.9664 61.9425 11.9848 62.9254 12.4265C63.9084 12.8682 64.5961 13.6178 64.9884 14.6754C65.3807 15.733 65.3483 16.7498 64.8912 17.7257C64.434 18.7016 63.6598 19.3919 62.5685 19.7968L59.362 20.9862L60.9896 25.374L59.7239 25.8436ZM58.9237 19.8049L62.1302 18.6154C62.8953 18.3316 63.4229 17.8735 63.7131 17.2411C64.0033 16.6087 64.0065 15.91 63.7227 15.1449C63.4389 14.3799 62.9808 13.8523 62.3484 13.5621C61.716 13.2719 61.0172 13.2687 60.2522 13.5525L57.0457 14.742L58.9237 19.8049Z" fill="#3C3340"/>
<path d="M71.2323 21.4084L69.204 8.97272L70.5364 8.7554L72.1736 18.7928L78.1754 7.5094L79.3302 7.32105L81.3585 19.7567L80.0261 19.974L78.389 9.93668L72.3871 21.22L71.2323 21.4084Z" fill="#3C3340"/>
<path d="M85.3113 19.0198L88.4608 13.9061C87.9865 13.7335 87.5571 13.4784 87.1726 13.1409C86.3349 12.3673 85.9365 11.3929 85.9774 10.2176C86.0149 9.13827 86.4119 8.25152 87.1685 7.55738C87.925 6.86323 88.861 6.53554 89.9763 6.57429L95.0133 6.74932L94.5757 19.3417L93.2265 19.2948L93.4015 14.2579L89.8037 14.1329L86.8404 19.0729L85.3113 19.0198ZM89.7575 12.8705L93.4453 12.9986L93.6203 7.96168L89.9325 7.83353C89.165 7.80686 88.5455 8.01347 88.0739 8.45336C87.6023 8.89325 87.3532 9.49696 87.3265 10.2645C87.2999 11.032 87.5065 11.6516 87.9464 12.1231C88.3863 12.5947 88.99 12.8438 89.7575 12.8705Z" fill="#3C3340"/>
<path d="M101.965 20.1221L104.217 9.00796L100.336 8.22148L100.587 6.98658L109.672 8.82765L109.422 10.0626L105.541 9.27608L103.288 20.3902L101.965 20.1221Z" fill="#3C3340"/>
<path d="M109.825 21.4981L114.516 9.80374L115.769 10.3063L111.983 19.7453L122.952 13.1877L124.038 13.6232L119.348 25.3176L118.095 24.815L121.881 15.376L110.911 21.9337L109.825 21.4981Z" fill="#3C3340"/>
<path d="M123.004 26.6986L128.342 23.9474C128.025 23.5546 127.79 23.1143 127.635 22.6267C127.317 21.5316 127.48 20.4915 128.122 19.5063C128.711 18.6015 129.51 18.0474 130.516 17.844C131.522 17.6405 132.493 17.8435 133.428 18.4529L137.65 21.2051L130.77 31.7606L129.639 31.0234L132.391 26.8012L129.375 24.8354L124.286 27.534L123.004 26.6986ZM129.988 23.7307L133.079 25.7457L135.831 21.5235L132.74 19.5085C132.096 19.0891 131.459 18.9459 130.828 19.0789C130.197 19.2119 129.672 19.6001 129.253 20.2435C128.833 20.8869 128.69 21.5241 128.823 22.1551C128.956 22.7861 129.344 23.3113 129.988 23.7307Z" fill="#3C3340"/>
<path d="M143.882 43.3966L153.593 35.3678L154.453 36.4082L144.742 44.437L143.882 43.3966Z" fill="#3C3340"/>
<path d="M148.847 49.695L158.37 43.5375L156.219 40.2121L157.277 39.528L162.311 47.3123L161.253 47.9965L159.103 44.6711L149.58 50.8287L148.847 49.695Z" fill="#3C3340"/>
<path d="M152.639 54.9274L166.276 54.7248L166.776 55.8816L157.278 65.6688L156.707 64.3468L159.358 61.6333L157.004 56.18L153.21 56.2494L152.639 54.9274ZM158.374 56.1763L160.301 60.6381L164.791 56.0525L158.374 56.1763Z" fill="#3C3340"/>
<path d="M158.571 67.934L170.938 65.526L171.162 66.6745L165.446 73.1055L173.157 76.922L173.381 78.0705L161.013 80.4785L160.755 79.1534L170.826 77.1926L163.326 73.5183L168.9 67.2984L158.829 69.2592L158.571 67.934Z" fill="#3C3340"/>
<path d="M115.309 87.4275L99.4824 81.9455L93.7262 66.8728C93.4854 66.2421 93.0466 65.6973 92.4694 65.3122C91.8922 64.9272 91.2046 64.7207 90.5 64.7207C89.7953 64.7207 89.1077 64.9272 88.5305 65.3122C87.9533 65.6973 87.5145 66.2421 87.2737 66.8728L81.5175 81.9455L65.6912 87.4275C65.029 87.6569 64.4569 88.0748 64.0526 88.6245C63.6484 89.1742 63.4315 89.829 63.4315 90.5002C63.4315 91.1713 63.6484 91.8261 64.0526 92.3758C64.4569 92.9255 65.029 93.3435 65.6912 93.5728L81.5175 99.0548L87.2737 114.128C87.5145 114.758 87.9533 115.303 88.5305 115.688C89.1077 116.073 89.7953 116.28 90.5 116.28C91.2046 116.28 91.8922 116.073 92.4694 115.688C93.0466 115.303 93.4854 114.758 93.7262 114.128L99.4824 99.0548L115.309 93.5728C115.971 93.3435 116.543 92.9255 116.947 92.3758C117.352 91.8261 117.568 91.1713 117.568 90.5002C117.568 89.829 117.352 89.1742 116.947 88.6245C116.543 88.0748 115.971 87.6569 115.309 87.4275ZM114.3 90.9431L97.8262 96.6478C97.6233 96.718 97.439 96.8298 97.2864 96.9751C97.1337 97.1205 97.0164 97.296 96.9427 97.4892L90.9528 113.178C90.9149 113.263 90.8519 113.335 90.7713 113.386C90.6908 113.436 90.5965 113.463 90.5 113.463C90.4034 113.463 90.3091 113.436 90.2286 113.386C90.148 113.335 90.085 113.263 90.0471 113.178L84.0572 97.4892C83.9835 97.296 83.8662 97.1205 83.7135 96.9751C83.5609 96.8298 83.3766 96.718 83.1737 96.6478L66.7002 90.9314C66.6114 90.8954 66.5357 90.8353 66.4825 90.7586C66.4293 90.682 66.4009 90.5921 66.4009 90.5002C66.4009 90.4083 66.4293 90.3184 66.4825 90.2417C66.5357 90.165 66.6114 90.1049 66.7002 90.0689L83.1737 84.3642C83.3766 84.294 83.5609 84.1823 83.7135 84.0369C83.8662 83.8915 83.9835 83.716 84.0572 83.5228L90.0471 67.8338C90.085 67.7492 90.148 67.6771 90.2286 67.6264C90.3091 67.5757 90.4034 67.5487 90.5 67.5487C90.5965 67.5487 90.6908 67.5757 90.7713 67.6264C90.8519 67.6771 90.9149 67.7492 90.9528 67.8338L96.9427 83.5228C97.0164 83.716 97.1337 83.8915 97.2864 84.0369C97.439 84.1823 97.6233 84.294 97.8262 84.3642L114.3 90.0689C114.388 90.1049 114.464 90.165 114.517 90.2417C114.571 90.3184 114.599 90.4083 114.599 90.5002C114.599 90.5921 114.571 90.682 114.517 90.7586C114.464 90.8353 114.388 90.8954 114.3 90.9314V90.9431Z" fill="#3C3340"/>
</svg>
