<svg width="98" height="50" viewBox="0 0 98 50" fill="none" xmlns="http://www.w3.org/2000/svg">
<g clip-path="url(#clip0_49_3)">
<path d="M4.44088 8.62048V29.988H0.167236V8.62048H4.44088ZM4.44088 0.0734558V4.34697H0.167236V0.0734558H4.44088Z" fill="#232323"/>
<path d="M29.4399 21.441V25.7145H25.1663V21.441H29.4399ZM16.619 4.34695V29.988H15.3797C14.4965 29.988 13.7699 29.7031 13.2001 29.1333C12.6303 28.5634 12.3454 27.837 12.3454 26.9538V4.34695H16.619ZM25.1663 25.7145V29.988H16.619V25.7145H25.1663ZM25.1663 8.62046V12.894H8.07178V8.62046H25.1663Z" fill="#232323"/>
<path d="M48.8981 8.62047H53.172V29.988H48.8981V8.62047ZM31.8037 16.9538C31.8037 15.1304 32.2738 13.5635 33.214 12.2529C34.1542 10.9424 35.4363 9.94525 37.0603 9.26149C38.7128 8.54923 40.5362 8.19312 42.5305 8.19312C44.4962 8.19312 46.2915 8.54923 47.9151 9.26149C49.5392 9.94525 50.8213 10.9424 51.7615 12.2529C52.7017 13.5635 53.172 15.1304 53.172 16.9538V21.1846C53.172 23.0079 52.7017 24.5891 51.7615 25.9282C50.8213 27.2387 49.5392 28.2501 47.9151 28.9623C46.2915 29.6461 44.4962 29.988 42.5305 29.988C40.5362 29.988 38.7128 29.6461 37.0603 28.9623C35.4363 28.2501 34.1542 27.2387 33.214 25.9282C32.2738 24.5891 31.8037 23.0079 31.8037 21.1846V16.9538ZM36.0773 20.5863C36.0773 22.4951 36.7326 23.8341 38.0432 24.6034C39.3823 25.3441 40.878 25.7145 42.5305 25.7145C44.1261 25.7145 45.579 25.3441 46.8898 24.6034C48.2001 23.8341 48.8553 22.4951 48.8553 20.5863V17.5521C48.8553 15.6432 48.2001 14.3185 46.8898 13.5777C45.6076 12.837 44.1543 12.4666 42.5305 12.4666C40.878 12.4666 39.3823 12.837 38.0432 13.5777C36.7326 14.3185 36.0773 15.6432 36.0773 17.5521V20.5863ZM44.6246 16.9538V21.2273H40.351V16.9538H44.6246Z" fill="#232323"/>
<path d="M76.3712 18.0222C76.3712 16.1133 75.716 14.7886 74.4052 14.0478C73.0948 13.2786 71.6415 12.894 70.0461 12.894C68.3938 12.894 66.8977 13.2786 65.5586 14.0478C64.2483 14.7886 63.5931 16.1133 63.5931 18.0222V21.0564L59.3192 21.6547V17.4239C59.3192 15.6005 59.7895 14.0336 60.7297 12.723C61.6699 11.384 62.952 10.3726 64.5761 9.68886C66.2284 8.97659 68.0519 8.62048 70.0461 8.62048C72.0121 8.62048 73.7928 8.97659 75.3882 9.68886C77.0122 10.3726 78.2944 11.384 79.2346 12.723C80.1748 14.0336 80.6446 15.6005 80.6446 17.4239V29.988H76.3712V18.0222ZM63.5931 16.7401V29.988H59.3192V16.7401H63.5931ZM97.7394 25.7145V29.988H93.4655V25.7145H97.7394ZM93.4227 18.0222C93.4227 16.1133 92.7675 14.7886 91.4572 14.0478C90.1464 13.2786 88.6935 12.894 87.0981 12.894C85.4454 12.894 83.9497 13.2786 82.6106 14.0478C81.2716 14.7886 80.6019 16.1133 80.6019 18.0222V21.0564L76.3712 21.6547V17.4239C76.3712 15.6005 76.841 14.0336 77.7812 12.723C78.7214 11.384 80.0036 10.3726 81.6276 9.68886C83.2799 8.97659 85.1034 8.62048 87.0981 8.62048C89.0637 8.62048 90.8589 8.97659 92.4825 9.68886C94.1066 10.3726 95.3887 11.384 96.3289 12.723C97.2691 14.0336 97.7394 15.6005 97.7394 17.4239V25.7145H93.4227V18.0222ZM60.6441 8.62048V12.894H56.3706V8.62048H60.6441Z" fill="#232323"/>
<path d="M1.81148 36.63V49.7658H0.167236V36.63H1.81148Z" fill="#232323"/>
<path d="M8.07046 36.63V49.7658H6.4262V36.63H8.07046ZM11.3589 36.63V38.272H3.1377V36.63H11.3589Z" fill="#232323"/>
<path d="M28.928 44.0188V45.6607H22.2523V44.0188H28.928ZM26.4945 36.63L21.7262 49.7658H19.9175L24.6858 36.63H26.4945ZM31.2628 49.7658H29.4541L24.6858 36.63H26.4945L31.2628 49.7658Z" fill="#232323"/>
<path d="M35.0463 36.63V49.7658H33.402V36.63H35.0463ZM38.3348 36.63V38.272H30.1135V36.63H38.3348Z" fill="#232323"/>
<path d="M48.5375 36.63V49.7658H46.8933V36.63H48.5375ZM50.3464 36.63L55.4437 49.7658H53.6348L48.5375 36.63H50.3464ZM50.3464 36.63V38.272H46.8933V36.63H50.3464ZM62.3495 49.7658H60.7049V36.63H62.3495V49.7658ZM55.608 49.7658H53.7991L58.8964 36.63H60.7049L55.608 49.7658ZM62.3495 38.272H58.8964V36.63H62.3495V38.272Z" fill="#232323"/>
<path d="M66.12 36.63V49.7658H64.4758V36.63H66.12Z" fill="#232323"/>
<path d="M68.0886 40.8334C68.0886 39.9139 68.3736 39.1258 68.9437 38.469C69.5137 37.8123 70.2536 37.3142 71.1634 36.9749C72.0844 36.6355 73.0652 36.4659 74.1069 36.4659C75.1151 36.4659 76.0416 36.6355 76.8855 36.9749C77.7294 37.3032 78.4308 37.7958 78.9902 38.4526C79.5602 39.1094 79.9329 39.903 80.108 40.8334H78.1681C77.8831 39.903 77.3734 39.2462 76.6386 38.8631C75.9154 38.469 75.0714 38.272 74.1069 38.272C73.0545 38.272 72.1118 38.4745 71.2785 38.8795C70.4453 39.2736 70.0289 39.9249 70.0289 40.8334H68.0886ZM70.0289 45.5953C70.314 46.5145 70.8181 47.1658 71.5417 47.5491C72.2761 47.932 73.1311 48.1235 74.1069 48.1235C75.1592 48.1235 76.0964 47.9265 76.9185 47.5325C77.7513 47.1385 78.1681 46.4872 78.1681 45.5786H80.1247C80.1247 46.4983 79.8396 47.2863 79.2696 47.9432C78.7107 48.6 77.9708 49.0979 77.0498 49.4372C76.1289 49.7658 75.148 49.9299 74.1069 49.9299C73.0871 49.9299 72.1554 49.7658 71.3115 49.4372C70.4676 49.109 69.7602 48.6218 69.1902 47.9761C68.6313 47.3192 68.2641 46.5256 68.0886 45.5953H70.0289ZM78.1681 45.5786C78.1681 45.294 78.0089 45.0697 77.6909 44.9056C77.3734 44.7303 76.9732 44.5991 76.4909 44.5115C76.0087 44.4239 75.3235 44.3252 74.4355 44.2158C73.12 44.0628 72.0347 43.8927 71.1797 43.7068C70.3358 43.5209 69.607 43.2034 68.9929 42.7547C68.3903 42.2948 68.0886 41.6544 68.0886 40.8334H70.0289C70.0289 41.1947 70.2044 41.4793 70.5549 41.6873C70.9058 41.8953 71.35 42.0485 71.8871 42.147C72.4242 42.2346 73.1585 42.3221 74.0902 42.4097C75.3727 42.5411 76.4139 42.6943 77.2142 42.8697C78.0144 43.0338 78.6996 43.3291 79.2696 43.756C79.8396 44.1829 80.1247 44.7906 80.1247 45.5786H78.1681Z" fill="#232323"/>
<path d="M83.7347 36.63V49.7658H82.0906V36.63H83.7347Z" fill="#232323"/>
<path d="M85.7034 40.8334C85.7034 39.9139 85.9884 39.1258 86.5584 38.469C87.1284 37.8123 87.8684 37.3142 88.7782 36.9749C89.6987 36.6355 90.68 36.4659 91.7212 36.4659C92.7298 36.4659 93.6559 36.6355 94.5003 36.9749C95.3442 37.3032 96.0456 37.7958 96.6049 38.4526C97.1745 39.1094 97.5472 39.903 97.7227 40.8334H95.7824C95.4974 39.903 94.9877 39.2462 94.2533 38.8631C93.5301 38.469 92.6858 38.272 91.7212 38.272C90.6688 38.272 89.7261 38.4745 88.8933 38.8795C88.0601 39.2736 87.6437 39.9249 87.6437 40.8334H85.7034ZM87.6437 45.5953C87.9287 46.5145 88.4328 47.1658 89.1565 47.5491C89.8908 47.932 90.7459 48.1235 91.7212 48.1235C92.7735 48.1235 93.7107 47.9265 94.5328 47.5325C95.366 47.1385 95.7824 46.4872 95.7824 45.5786H97.7394C97.7394 46.4983 97.4544 47.2863 96.8844 47.9432C96.325 48.6 95.5851 49.0979 94.6646 49.4372C93.7436 49.7658 92.7628 49.9299 91.7212 49.9299C90.7018 49.9299 89.7702 49.7658 88.9262 49.4372C88.0819 49.109 87.3749 48.6218 86.8049 47.9761C86.246 47.3192 85.8788 46.5256 85.7034 45.5953H87.6437ZM95.7824 45.5786C95.7824 45.294 95.6236 45.0697 95.3057 44.9056C94.9877 44.7303 94.5876 44.5991 94.1053 44.5115C93.623 44.4239 92.9378 44.3252 92.0503 44.2158C90.7347 44.0628 89.6495 43.8927 88.7944 43.7068C87.9505 43.5209 87.2217 43.2034 86.6076 42.7547C86.0046 42.2948 85.7034 41.6544 85.7034 40.8334H87.6437C87.6437 41.1947 87.8191 41.4793 88.1696 41.6873C88.5205 41.8953 88.9643 42.0485 89.5014 42.147C90.0385 42.2346 90.7733 42.3221 91.7049 42.4097C92.9875 42.5411 94.0287 42.6943 94.8289 42.8697C95.6292 43.0338 96.3143 43.3291 96.8844 43.756C97.4544 44.1829 97.7394 44.7906 97.7394 45.5786H95.7824Z" fill="#232323"/>
</g>
<defs>
<clipPath id="clip0_49_3">
<rect width="98" height="50" fill="white"/>
</clipPath>
</defs>
</svg>
