<svg width="31" height="31" viewBox="0 0 31 31" fill="none" xmlns="http://www.w3.org/2000/svg">
<path d="M13 16.6089C13.5368 17.3265 14.2217 17.9204 15.0082 18.35C15.7947 18.7797 16.6644 19.0353 17.5583 19.0993C18.4522 19.1633 19.3495 19.0343 20.1892 18.7211C21.0289 18.4079 21.7914 17.9177 22.425 17.2839L26.175 13.5339C27.3135 12.3551 27.9435 10.7763 27.9292 9.13762C27.915 7.49889 27.2577 5.93131 26.0989 4.77251C24.9401 3.61371 23.3725 2.9564 21.7338 2.94216C20.095 2.92792 18.5163 3.55789 17.3375 4.69637L15.1875 6.83387" stroke="#939393" stroke-width="2" stroke-linecap="round" stroke-linejoin="round"/>
<path d="M17.9998 14.1089C17.4629 13.3912 16.7781 12.7974 15.9916 12.3677C15.2051 11.938 14.3354 11.6825 13.4414 11.6185C12.5475 11.5545 11.6503 11.6834 10.8106 11.9967C9.97088 12.3099 9.20837 12.8001 8.57476 13.4339L4.82476 17.1839C3.68627 18.3627 3.05631 19.9414 3.07055 21.5802C3.08479 23.2189 3.74209 24.7865 4.9009 25.9453C6.0597 27.1041 7.62727 27.7614 9.266 27.7756C10.9047 27.7898 12.4835 27.1599 13.6623 26.0214L15.7998 23.8839" stroke="#939393" stroke-width="2" stroke-linecap="round" stroke-linejoin="round"/>
</svg>
